<svg width="18" height="20" viewBox="0 0 18 20" fill="none" xmlns="http://www.w3.org/2000/svg">
<path d="M17.75 1.74996V19C17.75 19.1989 17.671 19.3896 17.5303 19.5303C17.3897 19.6709 17.1989 19.75 17 19.75C16.8011 19.75 16.6103 19.6709 16.4697 19.5303C16.329 19.3896 16.25 19.1989 16.25 19V14.5H11.75C11.5511 14.5 11.3603 14.4209 11.2197 14.2803C11.079 14.1396 11 13.9489 11 13.75C11.0348 11.9534 11.2617 10.1657 11.6769 8.41746C12.5938 4.62152 14.3319 2.07715 16.7047 1.0609C16.8187 1.01205 16.9431 0.99225 17.0667 1.00328C17.1903 1.01432 17.3092 1.05584 17.4128 1.12412C17.5164 1.19241 17.6014 1.28532 17.6603 1.39455C17.7191 1.50377 17.7499 1.62589 17.75 1.74996ZM8.73969 1.62715C8.725 1.52867 8.69085 1.4341 8.63923 1.34896C8.5876 1.26381 8.51954 1.1898 8.43902 1.13124C8.35849 1.07267 8.26711 1.03073 8.17021 1.00786C8.0733 0.98498 7.97281 0.981628 7.87459 0.997998C7.77638 1.01437 7.68241 1.05013 7.59816 1.1032C7.51391 1.15627 7.44107 1.22558 7.38389 1.30709C7.32671 1.38861 7.28634 1.48069 7.26512 1.57797C7.2439 1.67526 7.24227 1.77579 7.26031 1.87371L7.98969 6.24996H5.75V1.74996C5.75 1.55105 5.67098 1.36028 5.53033 1.21963C5.38968 1.07898 5.19891 0.999961 5 0.999961C4.80109 0.999961 4.61032 1.07898 4.46967 1.21963C4.32902 1.36028 4.25 1.55105 4.25 1.74996V6.24996H2.01031L2.73969 1.87371C2.75773 1.77579 2.7561 1.67526 2.73488 1.57797C2.71366 1.48069 2.67329 1.38861 2.61611 1.30709C2.55893 1.22558 2.48609 1.15627 2.40184 1.1032C2.31759 1.05013 2.22362 1.01437 2.12541 0.997998C2.02719 0.981628 1.9267 0.98498 1.82979 1.00786C1.73289 1.03073 1.64151 1.07267 1.56098 1.13124C1.48045 1.1898 1.4124 1.26381 1.36077 1.34896C1.30915 1.4341 1.275 1.52867 1.26031 1.62715L0.510313 6.12715C0.503582 6.16774 0.500133 6.20881 0.5 6.24996C0.501499 7.31291 0.878673 8.34111 1.56488 9.15289C2.25108 9.96467 3.20214 10.5078 4.25 10.6862V19C4.25 19.1989 4.32902 19.3896 4.46967 19.5303C4.61032 19.6709 4.80109 19.75 5 19.75C5.19891 19.75 5.38968 19.6709 5.53033 19.5303C5.67098 19.3896 5.75 19.1989 5.75 19V10.6862C6.79786 10.5078 7.74892 9.96467 8.43512 9.15289C9.12133 8.34111 9.4985 7.31291 9.5 6.24996C9.49987 6.20881 9.49642 6.16774 9.48969 6.12715L8.73969 1.62715Z" fill="#F58700"/>
</svg>
